<svg width="23" height="26" viewBox="0 0 23 26" fill="none" xmlns="http://www.w3.org/2000/svg">
<path d="M8.18924 1.76025C9.19268 1.23926 10.3152 0.947754 11.5 0.947754C15.7663 0.947754 19.2249 4.72762 19.2249 9.39033V10.2395C19.2249 11.2587 19.501 12.2549 20.0182 13.1029L21.2857 15.1809C22.4436 17.0789 21.5597 19.6588 19.546 20.259C14.2782 21.8291 8.7218 21.8291 3.454 20.259C1.44033 19.6588 0.556445 17.0789 1.71424 15.1809L2.98179 13.1029C3.49905 12.2549 3.77507 11.2587 3.77507 10.2395V9.39033C3.77507 8.09544 4.0418 6.86866 4.5185 5.772" stroke="#7F1D1D" stroke-width="1.55" stroke-linecap="round"/>
<path d="M6.34938 21.4366C7.09912 23.5431 9.12208 25.0523 11.5 25.0523C11.7798 25.0523 12.0548 25.0314 12.3232 24.991M16.6506 21.4366C16.3449 22.2954 15.8277 23.055 15.1609 23.6534" stroke="#7F1D1D" stroke-width="1.55" stroke-linecap="round"/>
</svg>
